# xmcd
#
# Track frame offsets:
# 150
# 18514
# 34859
# 53392
# 71267
# 89462
# 107578
# 127238
# 142462
# 159604
# 176498
# 191700
# 208752
# 224308
# 241728
# 259778
# 280782
# 299978
# 314186
#
# Disc length: 4411 seconds
#
#
# Revision: 0
# Processed by: cddbd v1.5.2PL0 Copyright (c) Steve Scherf et al.
# Submitted via: FreeRIP 2.944 
#
DISCID=31113913
DTITLE=McMurtry-L-LD3 - Dead-Mans-Walk15
DYEAR=1995
DGENRE=Booty Bass
TTITLE0=1501
TTITLE1=1502
TTITLE2=1503
TTITLE3=1504
TTITLE4=1505
TTITLE5=1506
TTITLE6=1507
TTITLE7=1508
TTITLE8=1509
TTITLE9=1510
TTITLE10=1511
TTITLE11=1512
TTITLE12=1513
TTITLE13=1514
TTITLE14=1515
TTITLE15=1516
TTITLE16=1517
TTITLE17=1518
TTITLE18=1519
EXTD=Dead Man's Walk-Lonesome Dove 3rd written\n1995 read by Jack Garrett by Larry McMurtry\nrecorded books - chrono1
EXTT0=
EXTT1=
EXTT2=
EXTT3=
EXTT4=
EXTT5=
EXTT6=
EXTT7=
EXTT8=
EXTT9=
EXTT10=
EXTT11=
EXTT12=
EXTT13=
EXTT14=
EXTT15=
EXTT16=
EXTT17=
EXTT18=
PLAYORDER=
